<svg xmlns="http://www.w3.org/2000/svg" viewBox="0 0 64 64">
  <rect width="64" height="64" rx="12" fill="#111111"></rect>
  <g fill="#f3b15a">
    <path d="M36.7 8l1.7 5.8c1.6.5 3.1 1.1 4.5 1.9l5.1-2.9 4.1 4.1-2.9 5.1c.8 1.4 1.4 2.9 1.9 4.5l5.8 1.7v5.8l-5.8 1.7c-.5 1.6-1.1 3.1-1.9 4.5l2.9 5.1-4.1 4.1-5.1-2.9c-1.4.8-2.9 1.4-4.5 1.9L36.7 56h-5.8l-1.7-5.8c-1.6-.5-3.1-1.1-4.5-1.9l-5.1 2.9-4.1-4.1 2.9-5.1c-.8-1.4-1.4-2.9-1.9-4.5L8 33.8V28l5.8-1.7c.5-1.6 1.1-3.1 1.9-4.5l-2.9-5.1 4.1-4.1 5.1 2.9c1.4-.8 2.9-1.4 4.5-1.9L28.2 8h8.5zM32 23.5A8.5 8.5 0 1 0 32 40.5 8.5 8.5 0 0 0 32 23.5z"></path>
    <path d="M46.5 39.5l.9 3.1c.9.2 1.7.6 2.4 1l2.7-1.5 2.1 2.1-1.5 2.7c.4.7.8 1.5 1 2.4l3.1.9v3.1l-3.1.9c-.2.9-.6 1.7-1 2.4l1.5 2.7-2.1 2.1-2.7-1.5c-.7.4-1.5.8-2.4 1l-.9 3.1h-3.1l-.9-3.1c-.9-.2-1.7-.6-2.4-1l-2.7 1.5-2.1-2.1 1.5-2.7c-.4-.7-.8-1.5-1-2.4l-3.1-.9v-3.1l3.1-.9c.2-.9.6-1.7 1-2.4l-1.5-2.7 2.1-2.1 2.7 1.5c.7-.4 1.5-.8 2.4-1l.9-3.1h3.1zM45 47.8a4.2 4.2 0 1 0 0 8.4 4.2 4.2 0 0 0 0-8.4z"></path>
  </g>
</svg>